<svg width="200" height="200" viewBox="0 0 200 200" fill="none" xmlns="http://www.w3.org/2000/svg">
  <defs>
    <linearGradient id="grad1" x1="0%" y1="0%" x2="100%" y2="100%">
      <stop offset="0%" style="stop-color:#6366f1;stop-opacity:1" />
      <stop offset="100%" style="stop-color:#8b5cf6;stop-opacity:1" />
    </linearGradient>
    <linearGradient id="grad2" x1="0%" y1="0%" x2="100%" y2="100%">
      <stop offset="0%" style="stop-color:#f59e0b;stop-opacity:1" />
      <stop offset="100%" style="stop-color:#eab308;stop-opacity:1" />
    </linearGradient>
  </defs>
  
  <!-- Background circle -->
  <circle cx="100" cy="100" r="95" fill="url(#grad1)" opacity="0.1"/>
  
  <!-- Maze/Labyrinth pattern -->
  <path d="M 30 30 L 30 170 L 170 170 L 170 50 L 50 50 L 50 90 L 130 90 L 130 130 L 70 130 L 70 110 L 110 110 L 110 70 L 90 70 L 90 150 L 150 150 L 150 30 Z" 
        fill="none" 
        stroke="url(#grad1)" 
        stroke-width="3" 
        stroke-linecap="round" 
        stroke-linejoin="round"/>
  
  <!-- Key icon -->
  <g transform="translate(140, 60)">
    <circle cx="0" cy="0" r="12" fill="url(#grad2)" stroke="#1e293b" stroke-width="2"/>
    <rect x="-8" y="6" width="16" height="8" rx="2" fill="url(#grad2)" stroke="#1e293b" stroke-width="2"/>
    <rect x="4" y="10" width="4" height="12" rx="1" fill="url(#grad2)" stroke="#1e293b" stroke-width="1"/>
  </g>
  
  <!-- Start point -->
  <circle cx="30" cy="30" r="8" fill="#10b981" stroke="#fff" stroke-width="2"/>
  
  <!-- End point -->
  <circle cx="170" cy="50" r="8" fill="#ef4444" stroke="#fff" stroke-width="2"/>
  
  <!-- Path dots -->
  <circle cx="90" cy="70" r="3" fill="#6366f1" opacity="0.6"/>
  <circle cx="110" cy="110" r="3" fill="#6366f1" opacity="0.6"/>
  <circle cx="130" cy="90" r="3" fill="#6366f1" opacity="0.6"/>
</svg>
